<svg width="32" height="32" viewBox="0 0 32 32" fill="none" xmlns="http://www.w3.org/2000/svg">
<path d="M18.3297 11.9435C17.5013 11.9435 16.8297 12.615 16.8297 13.4435C16.8297 14.2719 17.5013 14.9435 18.3297 14.9435V11.9435ZM23.0217 14.9435C23.8502 14.9435 24.5217 14.2719 24.5217 13.4435C24.5217 12.615 23.8502 11.9435 23.0217 11.9435V14.9435ZM9.61594 11.9435C8.78751 11.9435 8.11594 12.615 8.11594 13.4435C8.11594 14.2719 8.78751 14.9435 9.61594 14.9435V11.9435ZM14.308 14.9435C15.1364 14.9435 15.808 14.2719 15.808 13.4435C15.808 12.615 15.1364 11.9435 14.308 11.9435V14.9435ZM16.3188 21.5174C20.8605 21.5174 24.5217 17.8096 24.5217 13.2609H21.5217C21.5217 16.1753 19.1812 18.5174 16.3188 18.5174V21.5174ZM24.5217 13.2609C24.5217 8.71209 20.8605 5.00433 16.3188 5.00433V8.00433C19.1812 8.00433 21.5217 10.3464 21.5217 13.2609H24.5217ZM16.3188 5.00433C11.7772 5.00433 8.11594 8.71209 8.11594 13.2609H11.1159C11.1159 10.3464 13.4565 8.00433 16.3188 8.00433V5.00433ZM8.11594 13.2609C8.11594 17.8096 11.7772 21.5174 16.3188 21.5174V18.5174C13.4565 18.5174 11.1159 16.1753 11.1159 13.2609H8.11594ZM16.8116 13.2609C16.8116 13.5531 16.5797 13.7696 16.3188 13.7696V16.7696C18.2591 16.7696 19.8116 15.1874 19.8116 13.2609H16.8116ZM16.3188 13.7696C16.0579 13.7696 15.8261 13.5531 15.8261 13.2609H12.8261C12.8261 15.1874 14.3786 16.7696 16.3188 16.7696V13.7696ZM15.8261 13.2609C15.8261 12.9686 16.0579 12.7522 16.3188 12.7522V9.75216C14.3786 9.75216 12.8261 11.3343 12.8261 13.2609H15.8261ZM16.3188 12.7522C16.5797 12.7522 16.8116 12.9686 16.8116 13.2609H19.8116C19.8116 11.3343 18.2591 9.75216 16.3188 9.75216V12.7522ZM18.3297 14.9435H23.0217V11.9435H18.3297V14.9435ZM9.61594 14.9435H14.308V11.9435H9.61594V14.9435ZM15.3623 13.2609C15.3623 12.7463 15.7793 12.3087 16.3188 12.3087V15.3087C17.4587 15.3087 18.3623 14.3805 18.3623 13.2609H15.3623ZM16.3188 12.3087C16.8584 12.3087 17.2754 12.7463 17.2754 13.2609H14.2754C14.2754 14.3805 15.179 15.3087 16.3188 15.3087V12.3087ZM17.2754 13.2609C17.2754 13.7754 16.8584 14.213 16.3188 14.213V11.213C15.179 11.213 14.2754 12.1412 14.2754 13.2609H17.2754ZM16.3188 14.213C15.7793 14.213 15.3623 13.7754 15.3623 13.2609H18.3623C18.3623 12.1412 17.4587 11.213 16.3188 11.213V14.213Z" fill="#DF2935"/>
<path d="M26.2222 2H8.16667C6.49167 2 4 3.1186 4 6.2V25.8C4 28.8814 6.49167 30 8.16667 30H29V27.2H8.18333C7.54167 27.1832 6.77778 26.9284 6.77778 25.8C6.77778 24.6716 7.54167 24.4168 8.18333 24.4H29V4.8C29 3.2558 27.7542 2 26.2222 2ZM26.2222 21.6H6.77778V6.2C6.77778 5.0716 7.54167 4.8168 8.16667 4.8H26.2222V21.6Z" fill="#DF2935"/>
</svg>
