<?xml version="1.0" encoding="utf-8"?>
<!-- Generator: Adobe Illustrator 16.0.4, SVG Export Plug-In . SVG Version: 6.00 Build 0)  -->
<!DOCTYPE svg PUBLIC "-//W3C//DTD SVG 1.1//EN" "http://www.w3.org/Graphics/SVG/1.1/DTD/svg11.dtd">
<svg version="1.1" id="Layer_1" xmlns="http://www.w3.org/2000/svg" xmlns:xlink="http://www.w3.org/1999/xlink" x="0px" y="0px"
	 width="192px" height="192px" viewBox="0 0 192 192" enable-background="new 0 0 192 192" xml:space="preserve">
<g>
	<path fill="#EF5A58" d="M107.64,59.06c-0.33,0.32-0.649,0.64-0.97,0.96s-0.64,0.66-0.95,1c-0.359,0.39-0.71,0.79-1.05,1.2
		c-0.22,0.25-0.43,0.51-0.64,0.78c-0.09,0.11-0.181,0.22-0.261,0.34c-0.229,0.28-0.449,0.57-0.659,0.86
		c-0.21,0.28-0.41,0.56-0.601,0.84c-0.2,0.28-0.39,0.57-0.58,0.86c-0.38,0.58-0.739,1.16-1.09,1.76c-3.229,5.6-5.09,12.1-5.09,19.03
		c0-6.93-1.85-13.43-5.09-19.03c-0.46-0.8-0.95-1.58-1.47-2.34c-0.52-0.75-1.06-1.49-1.63-2.21c-1.13-1.44-2.37-2.79-3.7-4.05
		c2.07-3.76,4.56-7.25,7.4-10.42c1.41-1.58,2.91-3.08,4.49-4.49c1.58,1.41,3.08,2.91,4.49,4.49
		C103.08,51.81,105.57,55.3,107.64,59.06z"/>
	<path fill="#76B2E1" d="M90.66,67.66c-0.46-0.8-0.95-1.58-1.47-2.34c-0.52-0.75-1.06-1.49-1.63-2.21c-1.13-1.44-2.37-2.79-3.7-4.05
		c-2.16-2.04-4.55-3.83-7.13-5.33c-2.94-1.7-6.14-3.02-9.52-3.89c-3.04-0.78-6.22-1.2-9.5-1.2c-6.93,0-13.43,1.86-19.02,5.09V13
		c-6.75,1.74-13.14,4.37-19.02,7.78V124.73h19.02v-5.091c5.59,3.23,12.09,5.091,19.02,5.091c3.28,0,6.46-0.421,9.5-1.2
		c3.38-0.87,6.58-2.19,9.52-3.891c2.58-1.5,4.97-3.29,7.13-5.33c0.33-0.31,0.66-0.64,0.97-0.96c0.32-0.33,0.64-0.659,0.95-1
		c0.62-0.67,1.21-1.369,1.78-2.09c0.57-0.72,1.11-1.46,1.63-2.21c0.52-0.76,1.01-1.54,1.47-2.34c3.24-5.6,5.09-12.1,5.09-19.02
		C95.75,79.76,93.9,73.26,90.66,67.66z M60.07,105.56c0.01,0.051,0.03,0.101,0.04,0.15h-2.4c-10.5,0-19.02-8.52-19.02-19.02
		c0-10.51,8.52-19.03,19.02-19.03h2.4c-0.01,0.05-0.03,0.1-0.04,0.15c9.39,1.16,16.66,9.17,16.66,18.88
		C76.73,96.39,69.46,104.4,60.07,105.56z"/>
	<path fill="#EF5A58" d="M107.64,114.31c-2.069,3.75-4.56,7.25-7.399,10.421c-1.41,1.579-2.91,3.079-4.49,4.489
		c-1.58-1.41-3.08-2.91-4.49-4.489c-2.84-3.171-5.33-6.671-7.4-10.421c0.33-0.31,0.66-0.64,0.97-0.96c0.32-0.33,0.64-0.659,0.95-1
		c0.62-0.67,1.21-1.369,1.78-2.09c0.57-0.72,1.11-1.46,1.63-2.21c0.52-0.76,1.01-1.54,1.47-2.34c3.24-5.6,5.09-12.1,5.09-19.02
		c0,6.92,1.86,13.42,5.09,19.02c0.351,0.6,0.71,1.19,1.09,1.76c0.19,0.29,0.38,0.58,0.58,0.86c0.98,1.41,2.05,2.76,3.21,4.02
		c0.311,0.341,0.63,0.681,0.95,1C106.99,113.68,107.31,114,107.64,114.31z"/>
	<g>
		<path fill="#93CFAB" d="M152.82,48.64v5.09c-5.601-3.23-12.101-5.09-19.03-5.09c-3.28,0-6.46,0.42-9.49,1.2c-0.01,0-0.01,0-0.01,0
			c-3.38,0.87-6.57,2.19-9.521,3.89c-2.579,1.5-4.97,3.29-7.119,5.33h-0.011c-0.33,0.32-0.649,0.64-0.97,0.96
			c-0.32,0.33-0.64,0.66-0.95,1c-0.359,0.39-0.71,0.79-1.05,1.2c-0.22,0.25-0.43,0.51-0.64,0.78c-0.09,0.11-0.181,0.22-0.261,0.34
			c-0.229,0.28-0.449,0.57-0.659,0.86c-0.21,0.28-0.41,0.56-0.601,0.84c-0.2,0.28-0.39,0.57-0.58,0.86
			c-0.38,0.58-0.739,1.16-1.09,1.76c-3.229,5.6-5.09,12.1-5.09,19.03c0,6.92,1.86,13.42,5.09,19.02c0.351,0.6,0.71,1.19,1.09,1.76
			c0.19,0.29,0.38,0.58,0.58,0.86c0.98,1.41,2.05,2.76,3.21,4.02c0.311,0.341,0.63,0.67,0.95,1s0.64,0.65,0.97,0.96h0.011
			c2.149,2.04,4.54,3.83,7.119,5.33c2.95,1.7,6.141,3.021,9.521,3.891c0,0,0,0,0.01,0c3.03,0.779,6.21,1.2,9.49,1.2
			c6.93,0,13.43-1.86,19.03-5.091v24.11c0,10.5-8.521,19.02-19.03,19.02h-2.39c0.01-0.05,0.02-0.09,0.029-0.149
			c-9.39-1.16-16.66-9.17-16.66-18.87H95.75c0,6.93,1.86,13.43,5.09,19.02c1.851,3.19,4.15,6.091,6.811,8.61
			c2.149,2.04,4.54,3.83,7.119,5.32c2.95,1.7,6.141,3.02,9.521,3.89c0,0,0,0,0.01,0c3.03,0.79,6.21,1.2,9.49,1.2
			c6.93,0,13.43-1.85,19.03-5.09c5.77-3.34,10.59-8.16,13.93-13.931c3.23-5.59,5.09-12.09,5.09-19.02V48.64H152.82z M133.79,105.71
			h-2.39c0.01-0.05,0.02-0.1,0.029-0.15c-9.39-1.159-16.66-9.18-16.66-18.87c0-9.71,7.271-17.72,16.66-18.88
			c-0.01-0.05-0.02-0.1-0.029-0.15h2.39c10.51,0,19.03,8.52,19.03,19.03C152.82,97.19,144.3,105.71,133.79,105.71z"/>
	</g>
</g>
</svg>
