<svg width="100" height="100" viewBox="0 0 100 100" fill="none" xmlns="http://www.w3.org/2000/svg">
<path d="M56.05 42.5C55.2216 42.5 54.55 43.1716 54.55 44C54.55 44.8284 55.2216 45.5 56.05 45.5V42.5ZM69 45.5C69.8284 45.5 70.5 44.8284 70.5 44C70.5 43.1716 69.8284 42.5 69 42.5V45.5ZM32 42.5C31.1716 42.5 30.5 43.1716 30.5 44C30.5 44.8284 31.1716 45.5 32 45.5V42.5ZM44.95 45.5C45.7784 45.5 46.45 44.8284 46.45 44C46.45 43.1716 45.7784 42.5 44.95 42.5V45.5ZM50.5 63.5C61.546 63.5 70.5 54.546 70.5 43.5H67.5C67.5 52.8891 59.8891 60.5 50.5 60.5V63.5ZM70.5 43.5C70.5 32.454 61.546 23.5 50.5 23.5V26.5C59.8891 26.5 67.5 34.1109 67.5 43.5H70.5ZM50.5 23.5C39.454 23.5 30.5 32.454 30.5 43.5H33.5C33.5 34.1109 41.1109 26.5 50.5 26.5V23.5ZM30.5 43.5C30.5 54.546 39.454 63.5 50.5 63.5V60.5C41.1109 60.5 33.5 52.8891 33.5 43.5H30.5ZM54.5 43.5C54.5 45.7091 52.7091 47.5 50.5 47.5V50.5C54.366 50.5 57.5 47.366 57.5 43.5H54.5ZM50.5 47.5C48.2909 47.5 46.5 45.7091 46.5 43.5H43.5C43.5 47.366 46.634 50.5 50.5 50.5V47.5ZM46.5 43.5C46.5 41.2909 48.2909 39.5 50.5 39.5V36.5C46.634 36.5 43.5 39.634 43.5 43.5H46.5ZM50.5 39.5C52.7091 39.5 54.5 41.2909 54.5 43.5H57.5C57.5 39.634 54.366 36.5 50.5 36.5V39.5ZM56.05 45.5H69V42.5H56.05V45.5ZM32 45.5H44.95V42.5H32V45.5ZM50.5 43.5V46.5C52.1569 46.5 53.5 45.1569 53.5 43.5H50.5ZM50.5 43.5H47.5C47.5 45.1569 48.8431 46.5 50.5 46.5V43.5ZM50.5 43.5V40.5C48.8431 40.5 47.5 41.8431 47.5 43.5H50.5ZM50.5 43.5H53.5C53.5 41.8431 52.1569 40.5 50.5 40.5V43.5Z" fill="#E6E8E6"/>
<path d="M77.8333 12.6667H28C23.377 12.6667 16.5 15.7295 16.5 24.1667V77.8333C16.5 86.2705 23.377 89.3333 28 89.3333H85.5V81.6667H28.046C26.275 81.6207 24.1667 80.923 24.1667 77.8333C24.1667 74.7437 26.275 74.046 28.046 74H85.5V20.3333C85.5 16.1052 82.0615 12.6667 77.8333 12.6667ZM77.8333 66.3333H24.1667V24.1667C24.1667 21.077 26.275 20.3793 28 20.3333H77.8333V66.3333Z" fill="#E6E8E6"/>
</svg>
